<?xml version="1.0" encoding="UTF-8"?>
<svg xmlns="http://www.w3.org/2000/svg" viewBox="27.5 20.7 245 245" width="512" height="512">
  <defs>
    <linearGradient id="grad" x1="43.5" y1="204.7" x2="256.5" y2="81.7" gradientUnits="userSpaceOnUse">
      <stop offset="0" stop-color="#5B2D91"/>
      <stop offset="0.12" stop-color="#6B2D8E"/>
      <stop offset="0.25" stop-color="#8A2A8A"/>
      <stop offset="0.37" stop-color="#A82960"/>
      <stop offset="0.48" stop-color="#C72E45"/>
      <stop offset="0.58" stop-color="#D94438"/>
      <stop offset="0.70" stop-color="#E46833"/>
      <stop offset="0.82" stop-color="#F08B27"/>
      <stop offset="1" stop-color="#F79A20"/>
    </linearGradient>
  </defs>
  <g fill="url(#grad)" fill-rule="nonzero">
    <path d="M82.55024,53.38037c0.40854,-0.0665 1.92832,-0.10679 2.41567,-0.12964l-0.00527,12.81108c-15.8313,1.04941 -16.1272,12.90747 -16.11899,25.70962l0.01377,15.44854c0.00776,8.82905 0.7106,17.96016 -3.92109,25.87646c-2.71406,4.63872 -6.05215,7.6106 -10.72588,10.11328c8.80239,4.41138 13.66245,13.3689 14.44849,22.90503c0.32358,3.92578 0.20596,8.20605 0.20464,12.17725l-0.01084,17.55762c0.00161,7.06348 0.19087,16.74902 6.41074,21.46729c2.80107,2.12402 6.31538,2.52539 9.71001,2.8374l-0.00557,12.97998c-3.68057,-0.20508 -6.26953,-0.40723 -9.87187,-1.24072c-14.22217,-3.49805 -19.4105,-14.5166 -20.32441,-28.10889c-0.24214,-3.60205 -0.1834,-7.05908 -0.18164,-10.66113l0.01333,-17.78174c0.00513,-11.29248 -0.18765,-24.22412 -13.94106,-26.63086l-0.01025,-11.11392l0.24741,-0.0208c5.30991,-0.50142 9.48545,-3.80464 11.50664,-8.68301c2.58296,-6.23423 2.16108,-13.7165 2.15259,-20.40103l-0.01729,-15.03999c-0.01611,-14.09399 0.15322,-30.16157 15.18633,-37.05425c4.31982,-1.98076 8.14321,-2.61636 12.82456,-3.01758z"/>
    <path d="M215.04199,53.24517c2.0376,0.1147 3.9082,0.22559 5.90625,0.52251c15.1626,2.25322 22.49414,11.20488 24.10254,26.14834c0.49219,4.57632 0.39844,8.32251 0.39258,12.90234l-0.02051,18.81328c0.00439,10.97886 0.28564,24.11484 13.92627,26.01899l0.03076,11.07642c-1.29492,0.14648 -2.56641,0.45703 -3.78369,0.92432c-10.37256,4.06348 -10.14404,16.50732 -10.14404,25.74316l0.00732,15.81592c0.00146,16.51025 0.46729,32.63525 -17.71582,39.82617c-3.76465,1.41357 -8.69092,1.9043 -12.70605,2.06543v-12.93457c2.93115,-0.24316 6.19043,-0.69141 8.74951,-2.21191c7.62451,-4.53076 7.37842,-15.61963 7.37549,-23.28369l-0.01172,-16.05762c-0.01025,-15.13037 -0.2959,-26.66016 14.6001,-35.36836c-14.01855,-8.06807 -14.64697,-18.75806 -14.60889,-33.25693l0.03662,-15.01685c0.02637,-13.51084 1.2085,-27.70415 -16.13672,-28.89932z"/>
    <path d="M109.80352,132.08716c0.32109,1.33989 0.08174,7.91045 0.08218,9.76611c-9.32109,11.52466 -16.98018,23.67114 -19.68135,38.46606c-2.14951,11.77295 3.16113,23.83154 15.97866,25.43701c13.3437,1.66992 26.89365,-5.93262 37.24937,-13.56885c1.53735,1.51172 3.14868,2.9458 4.82886,4.29639c-1.56299,1.21729 -3.22002,2.38477 -4.83076,3.54785c-9.35654,6.40869 -19.06025,11.05811 -30.49702,12.14795c-15.6,1.48682 -28.41987,-8.01709 -29.39312,-24.11426c-0.8707,-14.39941 6.40547,-29.08594 14.22012,-40.79883c3.40972,-5.11055 7.98779,-10.529 12.04307,-15.17944z"/>
    <path d="M187.9541,74.18086c6.56982,-0.44985 14.54883,1.08384 19.56592,5.41216c17.38623,15.00205 6.25635,42.39771 -4.40332,57.9832c-4.06494,5.94419 -8.55469,11.45991 -12.95947,16.80073l-0.01025,-10.04575c5.65283,-7.16411 9.22998,-12.07676 13.37842,-20.06016c5.32324,-10.74902 11.05811,-27.4856 1.87207,-37.88877c-7.04736,-7.98135 -19.55127,-6.61187 -28.59229,-3.3252c-7.40625,2.69194 -13.5835,6.42671 -20.03467,11.02705c-1.58057,-1.37007 -3.2915,-2.86978 -4.94971,-4.12031c9.91406,-7.90649 23.36279,-14.69487 36.1333,-15.78296z"/>
    <path d="M200.56348,144.88345c9.10254,12.80112 18.01318,30.0731 15.58154,46.32407c-0.95215,6.36475 -4.76221,12.75293 -10.04004,16.40625c-12.43213,8.60303 -29.08154,4.04736 -41.32471,-2.61182c-0.95654,-0.52148 -2.49902,-1.27002 -3.31934,-1.89697c-7.32275,-4.03125 -15.67544,-11.55176 -21.67954,-17.34668l9.13462,-0.01758c3.09229,2.8916 6.08057,4.98633 9.23438,7.65527c8.29834,5.60449 14.76563,9.45557 24.70752,11.77002c18.9375,4.40625 30.97412,-8.39941 26.55322,-27.1377c-2.32178,-9.83789 -6.79102,-19.60547 -12.89941,-27.93896c1.27734,-1.56299 2.88281,-3.57422 4.05176,-5.20591z"/>
    <path d="M139.7814,185.7583l9.13462,-0.01758c3.09229,2.8916 6.08057,4.98633 9.23438,7.65527l-0.21533,0.12744c-0.67236,-0.48633 -2.05078,-1.75635 -2.6543,-1.67871c-0.71045,0.7207 0.13037,2.63965 0.28125,3.62402c0.36914,1.88232 2.26025,2.9502 3.31787,4.41357c0.35449,0.48926 0.25928,1.46484 0.85254,1.83252c0.7002,0.43506 1.29053,0.68555 1.72852,1.39014c-7.32275,-4.03125 -15.67544,-11.55176 -21.67954,-17.34668z"/>
    <path d="M99.46289,141.09873c-0.80771,-1.00708 -1.67241,-2.23872 -2.38813,-3.31157c-8.83975,-13.24937 -17.7873,-32.82114 -11.4728,-48.71821c2.22715,-5.75244 6.70767,-10.34517 12.40312,-12.71411c9.09448,-3.88843 19.90181,-2.28999 28.84512,1.28877c-0.53013,0.30776 -0.55166,0.51152 -0.82178,1.10552c-0.02065,0.80464 1.96157,5.39341 2.81235,6.18413c0.66094,0.61436 1.9897,0.7752 2.60127,1.71475c-1.27954,-0.52354 -3.13652,-1.49429 -4.51729,-2.10293c-3.67178,-1.65 -7.52534,-2.86143 -11.48071,-3.60908c-11.70864,-2.14746 -23.30303,2.40967 -25.25654,15.14443c-2.08477,13.58921 5.75801,29.1063 13.38428,39.88389c-1.396,1.69014 -2.76592,3.40181 -4.10889,5.13442z"/>
    <path d="M135.68965,208.75781c0.47944,-0.02344 0.95098,0.00879 1.42061,0.11572c2.54648,0.58008 11.08945,14.24414 12.94102,17.25c0.76318,-1.34326 1.57471,-2.65869 2.43311,-3.94336c1.48242,-2.26611 7.40625,-11.02295 9.25488,-12.59766c0.48486,-0.4043 1.06494,-0.67676 1.68457,-0.78955c1.67432,-0.29883 3.30322,1.12793 3.45117,2.73486c0.17139,1.85889 -1.91602,3.94043 -3.05273,5.33789c-3.93018,5.2251 -7.26709,10.83984 -10.93506,16.23926c-0.32373,0.47754 -0.81885,0.88184 -1.3418,1.12793c-0.9126,0.42041 -1.9585,0.44385 -2.88867,0.06738c-1.60254,-0.65039 -3.31948,-3.98145 -4.2832,-5.4917c-1.53896,-2.39648 -3.10166,-4.77686 -4.68823,-7.14111c-1.11431,-1.61719 -2.26055,-3.2124 -3.43784,-4.78418c-1.8019,-2.38623 -5.69326,-6.32959 -0.55781,-8.12549z"/>
    <path d="M149.64404,51.72583c2.27637,-0.08774 2.99707,1.35029 4.05615,3.01787c3.63721,5.70615 7.03564,11.67129 11.59131,16.71416c1.51904,1.68149 2.62207,3.96152 0.31641,5.60112c-0.68262,0.49307 -1.54102,0.67251 -2.36279,0.49351c-0.5083,-0.11338 -1.37256,-0.51826 -1.71533,-0.89648c-4.20557,-4.63462 -7.98633,-10.38003 -11.25439,-15.6356l-0.1377,-0.19526c-0.0791,-0.00557 -0.16406,-0.04746 -0.2373,-0.01641c-0.43945,0.18735 -8.87271,14.88823 -12.57305,16.55508c-0.75747,0.34116 -1.48462,0.34893 -2.25278,0.03706c-0.83613,-0.33691 -1.49033,-1.01221 -1.80029,-1.85859c-0.27847,-0.74458 -0.23965,-1.57075 0.10708,-2.28589c0.42188,-0.86411 1.35381,-1.90957 2.01284,-2.65884c4.7499,-5.40059 8.13633,-11.74395 12.15806,-17.66235c0.44678,-0.65845 1.37549,-0.96328 2.0918,-1.20938z"/>
    <path d="M83.98623,125.56538c3.29575,-0.09111 4.56006,3.57554 2.95723,5.11934c-4.08398,3.93325 -9.72363,9.11602 -14.21982,12.34072c3.4793,2.49258 6.82866,5.3647 9.89927,8.34565c1.53574,1.49121 5.28882,3.91699 4.96201,6.2959c-0.30923,2.25 -1.97153,3.10693 -4.12178,2.78174c-1.29668,-0.53613 -5.86934,-5.14893 -7.27969,-6.44092c-1.70757,-1.54834 -3.47007,-3.03516 -5.28398,-4.45752c-1.66025,-1.27588 -5.13062,-3.52104 -5.98828,-5.26758c-1.42207,-2.89585 3.10693,-5.47969 4.96069,-6.92153c1.92817,-1.49663 3.81299,-3.04834 5.6521,-4.65322c2.38418,-2.06719 4.55845,-4.36699 6.95303,-6.40767c0.40986,-0.34922 1.00151,-0.55767 1.50923,-0.73491z"/>
    <path d="M215.29102,125.55366c0.69141,0.02534 1.51318,0.15938 2.05371,0.61743c2.79053,2.36309 5.34814,5.0458 8.12549,7.42456c1.87939,1.58672 3.79688,3.12583 5.75244,4.61602c1.0459,0.80962 2.25586,1.64297 3.17285,2.57021c1.24951,1.24292 1.23193,3.50376 -0.08936,4.6875c-2.27197,2.03599 -4.88086,3.72788 -7.2041,5.7186c-2.11963,1.80469 -4.19824,3.65918 -6.23291,5.55908c-1.10742,1.03711 -2.47705,2.4668 -3.61816,3.38672c-0.66797,0.27832 -1.31836,0.44531 -2.05078,0.37207c-0.86426,-0.09082 -1.65088,-0.54199 -2.16211,-1.24512c-2.22217,-3.0791 2.0874,-5.74072 4.0415,-7.58643c3.18604,-3.01025 6.60352,-6.06167 10.18506,-8.59292c-3.66357,-2.66953 -7.02832,-5.73823 -10.36084,-8.80298c-1.06201,-1.17187 -2.83008,-2.26143 -3.74707,-3.52822c-1.73877,-2.40264 -0.28125,-4.50835 2.13428,-5.19653z"/>
    <path d="M112.21436,160.17627c0.55342,0.36914 5.59937,5.77441 6.29736,6.55078c-0.00967,4.21143 -0.21504,10.88379 0.329,14.80664c0.91274,6.83057 4.54395,13.00195 10.07051,17.1167l-1.90825,0.8877c-1.55039,0.63867 -3.06401,1.27441 -4.64385,1.83984c-0.31655,-0.30469 -0.62974,-0.6123 -0.9397,-0.92432c-8.52349,-8.59863 -9.22896,-17.37744 -9.22837,-28.57178z"/>
    <path d="M119.77617,102.75718c4.91294,-0.15059 10.21934,-0.0627 15.16128,-0.06987l-6.2729,6.29971c-9.87759,-0.00674 -17.15479,-0.93135 -25.4231,5.44233c-2.33774,1.7543 -4.17729,3.96841 -5.87007,6.3249c-1.07915,-2.26157 -2.00156,-4.59478 -2.76064,-6.98291c7.51143,-7.83223 14.40894,-10.64385 25.16543,-11.01416z"/>
    <path d="M202.69922,165.76611c0.73828,0.61523 2.36279,5.47119 2.71582,6.59033c-0.46436,0.53906 -0.95215,1.05762 -1.46045,1.55713c-10.93799,10.88965 -21.58008,9.63135 -35.71289,9.6167l-3.21094,0.00293l6.10986,-6.27246c13.68604,0.02197 22.51172,0.71484 31.55859,-11.49463z"/>
    <path d="M177.39111,85.24058c0.44824,0.06401 0.97266,0.64775 1.30518,0.9772c8.37598,8.3168 9.12451,16.37622 9.11719,27.36958l-0.01611,12.32725c-1.01221,-0.97295 -2.02734,-2.05107 -3.01025,-3.06123l-3.29883,-3.40869c0,-14.52905 1.65527,-21.22222 -10.31543,-31.47012c2.09033,-1.01323 4.06934,-1.83955 6.21826,-2.73398z"/>
    <path d="M110.08345,145.13745c9.32695,10.24292 18.95361,20.20972 28.86753,29.88647l-3.82749,-0.00293l-5.12051,0.02051c-8.04448,-8.20166 -16.11914,-16.19385 -23.74878,-24.79687c1.19443,-1.72559 2.54619,-3.43799 3.82925,-5.10718z"/>
    <path d="M161.40234,111.23599c2.89893,0.00908 5.79785,-0.00688 8.69678,-0.04775c4.53223,4.50864 9.02051,9.06196 13.46338,13.65937c2.89746,2.96675 7.74609,7.78286 10.14258,10.9667c-0.67383,1.01206 -1.53223,2.10381 -2.26904,3.0873l-1.62451,2.09268c-3.59473,-4.47656 -7.86768,-8.82173 -11.87549,-12.95947c-5.45654,-5.65371 -10.96729,-11.25352 -16.53369,-16.79883z"/>
    <path d="M179.07715,156.57861c0.25195,0.35303 0.13916,8.16211 0.1333,9.04102c-7.2085,7.69775 -15.37646,16.16016 -22.95117,23.37598c-0.84814,-0.66504 -1.68604,-1.34326 -2.51367,-2.0332c-0.73828,-0.63428 -1.604,-1.29932 -2.36865,-1.91748c9.40283,-9.06592 18.69873,-18.98437 27.7002,-28.46631z"/>
    <path d="M181.62744,135.1979c2.14014,2.26172 4.30518,4.55493 6.18018,7.04194l-0.00293,21.78604c0.00293,1.40186 0.17139,9.15674 -0.09961,10.05762l-0.39111,0.14941c-2.05664,0.48779 -3.71777,0.63135 -5.81836,0.69434l0.01758,-27.23437l-0.01904,-7.82578c-0.00146,-1.17144 -0.04395,-3.59268 0.1333,-4.66919z"/>
    <path d="M143.68696,97.21084c1.16953,0.6624 3.66899,3.02886 4.70903,3.98687c-8.42476,8.40996 -16.71826,16.95059 -24.87759,25.61865c-0.85576,0.93442 -1.77935,1.84321 -2.67334,2.74409l-0.01069,-9.03823c7.46104,-7.92231 15.08013,-15.69434 22.85259,-23.31138z"/>
    <path d="M117.71455,111.39097c0.35024,-0.05962 0.32959,-0.07222 0.66621,0.0293c0.4415,0.75835 0.12158,2.5166 0.11646,3.43271l0.01099,8.26655l0.00688,27.88389l-2.66045,-2.84326c-1.28511,-1.35937 -2.50195,-2.78232 -3.646,-4.2624l0.00264,-31.58818c2.00186,-0.54609 3.43184,-0.72539 5.50327,-0.9186z"/>
    <path d="M126.8502,77.6436c12.58096,4.92876 23.75918,13.11533 33.06387,22.82417c-2.90039,0.00498 -5.91064,0.0479 -8.80225,0.00937c-5.4564,-4.7959 -10.88848,-9.04995 -17.31299,-12.48999c-0.69668,-0.37295 -1.7105,-0.90586 -2.35679,-1.33916c-0.61157,-0.93955 -1.94033,-1.10039 -2.60127,-1.71475c-0.85078,-0.79072 -2.83301,-5.37949 -2.81235,-6.18413c0.27012,-0.59399 0.29165,-0.79775 0.82178,-1.10552z"/>
    <path d="M150.15381,102.71558l28.34912,0.02109c0.52295,2.26436 0.65332,3.96636 0.79834,6.25181c-1.9292,0.02856 -3.89502,0.01377 -5.82715,0.01963l-29.51836,-0.01084c1.22783,-1.45078 4.76543,-4.96875 6.19805,-6.28169z"/>
    <path d="M120.75659,177.25635l35.18774,-0.00586c-0.854,1.00781 -2.24121,2.3291 -3.19922,3.2959c-0.97412,0.95947 -2.11377,2.14453 -3.16113,2.98682l-28.04736,0.00879c-0.42861,-2.31885 -0.70605,-3.90234 -0.78003,-6.28564z"/>
    <path d="M189.77197,103.8665c6.78955,2.00493 10.87061,4.70449 15.61816,9.95347c-0.52734,1.74141 -1.05322,3.03223 -1.73145,4.72471l-0.98584,2.17646c-3.46729,-5.19155 -7.03857,-7.69014 -12.55811,-10.18037c0.0498,-2.39312 -0.13184,-4.29507 -0.34277,-6.67427z"/>
    <path d="M97.25347,165.61084c3.94175,4.93506 6.67207,7.62598 12.64043,10.13965c-0.03442,2.23535 0.05435,4.44141 0.42642,6.64893l-2.12549,-0.56104c-5.56831,-2.17383 -9.57891,-4.9248 -13.60532,-9.43213c0.76567,-2.10352 1.70449,-4.80615 2.66396,-6.79541z"/>
    <path d="M186.72803,185.2207l0.15967,0.16113c-0.02197,0.83936 -0.48193,2.0918 -0.75439,2.90186c-1.66406,5.01123 -4.5835,9.51416 -8.47998,13.07813c-1.41943,-0.53613 -2.82568,-1.10156 -4.21875,-1.69922l-2.28955,-1.06348c4.72412,-3.79541 7.19238,-7.25098 9.271,-12.84229c2.0874,0.00439 4.24365,-0.26367 6.31201,-0.53613z"/>
    <path d="M122.40425,85.20586c2.19976,0.8105 4.38149,1.80542 6.50552,2.79272c-3.30117,2.53667 -6.1144,5.3729 -7.95513,9.15396c-0.42393,0.87085 -0.8313,3.09346 -1.53721,3.32344c-2.17236,-0.01699 -4.18945,0.26162 -6.33428,0.53423c1.37388,-6.70093 4.42954,-11.19624 9.32109,-15.80435z"/>
  </g>
</svg>